<mxfile host="app.diagrams.net" modified="2023-09-15T12:09:41.837Z" agent="Mozilla/5.0 (Windows NT 10.0; Win64; x64) AppleWebKit/537.36 (KHTML, like Gecko) Chrome/117.0.0.0 Safari/537.36" etag="PuipE71_BzVSZZpgkzor" version="21.7.5" type="device">
  <diagram name="1 oldal" id="FoHJtfpk4mD4vQdHSntj">
    <mxGraphModel dx="1050" dy="542" grid="1" gridSize="10" guides="1" tooltips="1" connect="1" arrows="1" fold="1" page="1" pageScale="1" pageWidth="827" pageHeight="1169" math="0" shadow="0">
      <root>
        <mxCell id="0" />
        <mxCell id="1" parent="0" />
        <mxCell id="K2ize6QH4zS8st8_mUGp-2" value="" style="rounded=0;whiteSpace=wrap;html=1;direction=south;" parent="1" vertex="1">
          <mxGeometry x="260" y="70" width="260" height="450" as="geometry" />
        </mxCell>
        <mxCell id="K2ize6QH4zS8st8_mUGp-3" value="" style="rounded=0;whiteSpace=wrap;html=1;direction=south;fontSize=15;" parent="1" vertex="1">
          <mxGeometry x="290" y="100" width="200" height="390" as="geometry" />
        </mxCell>
        <mxCell id="K2ize6QH4zS8st8_mUGp-4" value="&amp;lt;main&amp;gt;" style="text;html=1;strokeColor=none;fillColor=none;align=center;verticalAlign=middle;whiteSpace=wrap;rounded=0;fontSize=29;fontStyle=1;fontFamily=Times New Roman;" parent="1" vertex="1">
          <mxGeometry x="360" y="70" width="60" height="30" as="geometry" />
        </mxCell>
        <mxCell id="K2ize6QH4zS8st8_mUGp-5" value="&amp;lt;header&amp;gt;" style="rounded=0;whiteSpace=wrap;html=1;fontSize=29;fontStyle=1;fontFamily=Times New Roman;" parent="1" vertex="1">
          <mxGeometry x="290" y="100" width="200" height="40" as="geometry" />
        </mxCell>
        <mxCell id="K2ize6QH4zS8st8_mUGp-6" value="&amp;lt;nav&amp;gt;" style="rounded=0;whiteSpace=wrap;html=1;fontSize=26;fontStyle=1;fontFamily=Times New Roman;" parent="1" vertex="1">
          <mxGeometry x="390" y="140" width="100" height="40" as="geometry" />
        </mxCell>
        <mxCell id="K2ize6QH4zS8st8_mUGp-7" value="" style="rounded=0;whiteSpace=wrap;html=1;fontSize=28;fontStyle=1" parent="1" vertex="1">
          <mxGeometry x="290" y="180" width="200" height="260" as="geometry" />
        </mxCell>
        <mxCell id="K2ize6QH4zS8st8_mUGp-8" value="&amp;lt;footer&amp;gt;" style="text;html=1;strokeColor=none;fillColor=none;align=center;verticalAlign=middle;whiteSpace=wrap;rounded=0;fontSize=22;fontStyle=1;fontFamily=Times New Roman;" parent="1" vertex="1">
          <mxGeometry x="360" y="450" width="60" height="30" as="geometry" />
        </mxCell>
        <mxCell id="K2ize6QH4zS8st8_mUGp-9" value="OLTVAPP" style="text;html=1;strokeColor=none;fillColor=none;align=center;verticalAlign=middle;whiteSpace=wrap;rounded=0;fontSize=16;fontStyle=1" parent="1" vertex="1">
          <mxGeometry x="320" y="30" width="140" height="30" as="geometry" />
        </mxCell>
        <mxCell id="K2ize6QH4zS8st8_mUGp-16" value="&amp;lt;article&amp;gt;" style="text;html=1;strokeColor=none;fillColor=none;align=center;verticalAlign=middle;whiteSpace=wrap;rounded=0;fontSize=36;fontStyle=1;fontFamily=Times New Roman;" parent="1" vertex="1">
          <mxGeometry x="290" y="290" width="200" height="50" as="geometry" />
        </mxCell>
        <mxCell id="jU3jEppZw86cVo2aGZwy-1" value="" style="rounded=0;whiteSpace=wrap;html=1;fontFamily=Times New Roman;" parent="1" vertex="1">
          <mxGeometry x="240" y="660" width="440" height="300" as="geometry" />
        </mxCell>
        <mxCell id="jU3jEppZw86cVo2aGZwy-2" value="" style="rounded=0;whiteSpace=wrap;html=1;" parent="1" vertex="1">
          <mxGeometry x="260" y="700" width="400" height="240" as="geometry" />
        </mxCell>
        <mxCell id="jU3jEppZw86cVo2aGZwy-3" value="&amp;lt;main&amp;gt;" style="text;html=1;strokeColor=none;fillColor=none;align=center;verticalAlign=middle;whiteSpace=wrap;rounded=0;fontSize=22;fontStyle=1;fontFamily=Times New Roman;" parent="1" vertex="1">
          <mxGeometry x="420" y="660" width="70" height="40" as="geometry" />
        </mxCell>
        <mxCell id="jU3jEppZw86cVo2aGZwy-4" value="" style="rounded=0;whiteSpace=wrap;html=1;" parent="1" vertex="1">
          <mxGeometry x="260" y="700" width="400" height="30" as="geometry" />
        </mxCell>
        <mxCell id="jU3jEppZw86cVo2aGZwy-5" value="&amp;lt;nav&amp;gt;" style="text;html=1;strokeColor=none;fillColor=none;align=center;verticalAlign=middle;whiteSpace=wrap;rounded=0;fontSize=21;fontStyle=1;fontFamily=Times New Roman;" parent="1" vertex="1">
          <mxGeometry x="425" y="700" width="60" height="30" as="geometry" />
        </mxCell>
        <mxCell id="jU3jEppZw86cVo2aGZwy-6" value="" style="rounded=0;whiteSpace=wrap;html=1;" parent="1" vertex="1">
          <mxGeometry x="332.5" y="730" width="255" height="170" as="geometry" />
        </mxCell>
        <mxCell id="jU3jEppZw86cVo2aGZwy-7" value="&amp;lt;article&amp;gt;" style="text;html=1;strokeColor=none;fillColor=none;align=center;verticalAlign=middle;whiteSpace=wrap;rounded=0;fontSize=40;fontStyle=1;fontFamily=Times New Roman;" parent="1" vertex="1">
          <mxGeometry x="425" y="795" width="60" height="30" as="geometry" />
        </mxCell>
        <mxCell id="jU3jEppZw86cVo2aGZwy-8" value="&amp;lt;footer&amp;gt;" style="rounded=0;whiteSpace=wrap;html=1;fontSize=25;fontStyle=1;fontFamily=Times New Roman;" parent="1" vertex="1">
          <mxGeometry x="260" y="900" width="400" height="40" as="geometry" />
        </mxCell>
        <mxCell id="9Q7fzGDpLvfKLdtfy6R6-4" value="OLTVAPP" style="text;html=1;strokeColor=none;fillColor=none;align=center;verticalAlign=middle;whiteSpace=wrap;rounded=0;fontSize=16;fontStyle=1" vertex="1" parent="1">
          <mxGeometry x="385" y="620" width="140" height="30" as="geometry" />
        </mxCell>
      </root>
    </mxGraphModel>
  </diagram>
</mxfile>
